<?xml version="1.0" encoding="utf-8"?>
<!-- Generator: Adobe Illustrator 16.0.3, SVG Export Plug-In . SVG Version: 6.00 Build 0)  -->
<!DOCTYPE svg PUBLIC "-//W3C//DTD SVG 1.1//EN" "http://www.w3.org/Graphics/SVG/1.1/DTD/svg11.dtd">
<svg version="1.1" id="Layer_1" xmlns="http://www.w3.org/2000/svg" xmlns:xlink="http://www.w3.org/1999/xlink" x="0px" y="0px"
	 width="24px" height="24px" viewBox="0 0 24 24" enable-background="new 0 0 24 24" xml:space="preserve">
<path fill="#010101" d="M15.521,13.959h-0.79l-0.28-0.27c0.98-1.141,1.57-2.621,1.57-4.231c0-3.59-2.91-6.5-6.5-6.5
	s-6.5,2.91-6.5,6.5c0,3.59,2.91,6.5,6.5,6.5c1.61,0,3.09-0.59,4.23-1.57l0.27,0.279v0.791l5,4.99l1.49-1.49L15.521,13.959z
	 M9.521,13.959c-2.49,0-4.5-2.01-4.5-4.5s2.01-4.5,4.5-4.5s4.5,2.01,4.5,4.5S12.011,13.959,9.521,13.959z"/>
</svg>
