<?xml version="1.0" encoding="utf-8"?>
<!-- Generator: Adobe Illustrator 16.0.3, SVG Export Plug-In . SVG Version: 6.00 Build 0)  -->
<!DOCTYPE svg PUBLIC "-//W3C//DTD SVG 1.1//EN" "http://www.w3.org/Graphics/SVG/1.1/DTD/svg11.dtd">
<svg version="1.1" id="Layer_1" xmlns="http://www.w3.org/2000/svg" xmlns:xlink="http://www.w3.org/1999/xlink" x="0px" y="0px"
	 width="24px" height="24px" viewBox="0 0 24 24" enable-background="new 0 0 24 24" xml:space="preserve">
<g>
	<g>
		<path d="M8.278,2.786C8.232,2.812,8.135,2.877,8.127,2.885c-1.02,0.666-2.318,2.682-2.725,4.017
			c-0.554,1.801,0.643,5.131,1.948,7.65c1.304,2.52,3.333,5.422,5.124,6.009c0.361,0.118,0.768,0.179,1.209,0.179
			c1.056,0,3.084-0.342,3.806-0.625c0,0,0.13-0.049,0.181-0.075c0.261-0.136,0.452-0.362,0.542-0.642
			c0.088-0.281,0.063-0.578-0.072-0.836c-0.047-0.092-3.501-3.086-3.501-3.086l-1.776,0.781c-0.21,0.107-0.499,0.011-0.606-0.195
			L8.949,9.677C8.893,9.569,8.881,9.445,8.918,9.331S9.033,9.125,9.14,9.068l1.986-1.109c0,0-1.325-4.623-1.367-4.704
			c-0.183-0.357-0.57-0.588-0.987-0.588C8.6,2.667,8.431,2.708,8.278,2.786L8.278,2.786z M8.278,2.786"/>
	</g>
</g>
</svg>
