<?xml version="1.0" encoding="utf-8"?>
<!-- Generator: Adobe Illustrator 16.0.3, SVG Export Plug-In . SVG Version: 6.00 Build 0)  -->
<!DOCTYPE svg PUBLIC "-//W3C//DTD SVG 1.1//EN" "http://www.w3.org/Graphics/SVG/1.1/DTD/svg11.dtd">
<svg version="1.1" id="Layer_1" xmlns="http://www.w3.org/2000/svg" xmlns:xlink="http://www.w3.org/1999/xlink" x="0px" y="0px"
	 width="24px" height="24px" viewBox="0 0 24 24" enable-background="new 0 0 24 24" xml:space="preserve">
<g>
	<g>
		<path d="M8.297,2.815C8.251,2.841,8.154,2.906,8.146,2.914C7.126,3.58,5.828,5.596,5.421,6.931
			c-0.554,1.801,0.643,5.131,1.948,7.651c1.304,2.519,3.333,5.421,5.124,6.008c0.361,0.119,0.767,0.179,1.208,0.179
			c1.056,0,3.084-0.341,3.807-0.624c0,0,0.129-0.05,0.18-0.076c0.262-0.135,0.453-0.362,0.543-0.642
			c0.088-0.28,0.063-0.577-0.072-0.835c-0.048-0.093-3.502-3.086-3.502-3.086l-1.775,0.78c-0.21,0.107-0.499,0.011-0.606-0.194
			L8.968,9.706C8.912,9.598,8.9,9.474,8.937,9.36s0.115-0.207,0.222-0.263l1.986-1.109c0,0-1.325-4.623-1.367-4.704
			c-0.183-0.357-0.57-0.588-0.987-0.588C8.619,2.696,8.45,2.737,8.297,2.815L8.297,2.815z M8.297,2.815"/>
	</g>
</g>
<rect x="11.939" y="10.986" fill="#010101" width="2" height="2"/>
<rect x="15.939" y="10.986" fill="#010101" width="2" height="2"/>
<rect x="19.939" y="10.986" fill="#010101" width="2" height="2"/>
</svg>
