<?xml version="1.0" encoding="utf-8"?>
<!-- Generator: Adobe Illustrator 16.0.3, SVG Export Plug-In . SVG Version: 6.00 Build 0)  -->
<!DOCTYPE svg PUBLIC "-//W3C//DTD SVG 1.1//EN" "http://www.w3.org/Graphics/SVG/1.1/DTD/svg11.dtd">
<svg version="1.1" id="Layer_1" xmlns="http://www.w3.org/2000/svg" xmlns:xlink="http://www.w3.org/1999/xlink" x="0px" y="0px"
	 width="24px" height="24px" viewBox="0 0 24 24" enable-background="new 0 0 24 24" xml:space="preserve">
<path fill="#010101" d="M8.83,16.756c-0.872,0-1.577,0.713-1.577,1.584s0.705,1.586,1.577,1.586c0.872,0,1.585-0.715,1.585-1.586
	S9.702,16.756,8.83,16.756z M4.074,4.075V5.66H5.66l2.853,6.015l-1.07,1.943c-0.127,0.223-0.198,0.482-0.198,0.76
	c0,0.873,0.713,1.586,1.584,1.586h9.51v-1.586H9.163c-0.111,0-0.198-0.086-0.198-0.197l0.024-0.096l0.713-1.292h5.904
	c0.594,0,1.117-0.325,1.387-0.816l2.838-5.144c0.063-0.112,0.096-0.246,0.096-0.38c0-0.437-0.357-0.793-0.793-0.793H7.411
	L6.667,4.075H4.074z M16.756,16.756c-0.873,0-1.578,0.713-1.578,1.584s0.705,1.586,1.578,1.586c0.871,0,1.584-0.715,1.584-1.586
	S17.627,16.756,16.756,16.756z"/>
</svg>
