<?xml version="1.0" encoding="utf-8"?>
<!-- Generator: Adobe Illustrator 16.0.3, SVG Export Plug-In . SVG Version: 6.00 Build 0)  -->
<!DOCTYPE svg PUBLIC "-//W3C//DTD SVG 1.1//EN" "http://www.w3.org/Graphics/SVG/1.1/DTD/svg11.dtd">
<svg version="1.1" id="Layer_1" xmlns="http://www.w3.org/2000/svg" xmlns:xlink="http://www.w3.org/1999/xlink" x="0px" y="0px"
	 width="24px" height="24px" viewBox="0 0 24 24" enable-background="new 0 0 24 24" xml:space="preserve">
<path fill="#030303" d="M10.243,18.287c0,0.865-0.708,1.572-1.572,1.572s-1.564-0.707-1.564-1.572c0-0.863,0.7-1.57,1.564-1.57
	S10.243,17.424,10.243,18.287z M16.459,16.717c-0.863,0-1.564,0.707-1.564,1.57c0,0.865,0.701,1.572,1.564,1.572
	c0.865,0,1.572-0.707,1.572-1.572C18.031,17.424,17.324,16.717,16.459,16.717z M8.734,14.162l0.023-0.095l0.707-1.281h5.855
	c0.588,0,1.107-0.322,1.375-0.809l1.174-2.129C17.58,9.938,17.277,10,16.957,10c-1.668,0-3.021-1.312-3.021-2.929
	c0-0.492,0.138-0.949,0.358-1.356H7.194L6.455,4.142h-2.57v1.572h1.572l2.829,5.964l-1.061,1.925
	c-0.126,0.221-0.197,0.48-0.197,0.755c0,0.864,0.708,1.571,1.572,1.571h9.431v-1.571H8.931C8.82,14.358,8.734,14.273,8.734,14.162z
	 M19.867,6.729c0,1.415-1.152,2.563-2.57,2.563c-1.42,0-2.57-1.148-2.57-2.563s1.15-2.563,2.57-2.563
	C18.715,4.167,19.867,5.315,19.867,6.729z M18.619,6.532h-1.135V5.49h-0.375v1.042h-1.135v0.334h1.135v1.103h0.375V6.866h1.135
	V6.532z"/>
</svg>
