<?xml version="1.0" encoding="utf-8"?>
<!-- Generator: Adobe Illustrator 16.0.3, SVG Export Plug-In . SVG Version: 6.00 Build 0)  -->
<!DOCTYPE svg PUBLIC "-//W3C//DTD SVG 1.1//EN" "http://www.w3.org/Graphics/SVG/1.1/DTD/svg11.dtd">
<svg version="1.1" id="Layer_1" xmlns="http://www.w3.org/2000/svg" xmlns:xlink="http://www.w3.org/1999/xlink" x="0px" y="0px"
	 width="24px" height="24px" viewBox="0 0 24 24" enable-background="new 0 0 24 24" xml:space="preserve">
<path fill="#010101" d="M19.008,8.748H5.921c-1.552,0-2.805,1.253-2.805,2.805v5.609h3.739V20.9h11.218v-3.738h3.738v-5.609
	C21.813,10.001,20.561,8.748,19.008,8.748z M16.204,19.031H8.726v-4.674h7.479V19.031z M19.008,12.487
	c-0.514,0-0.934-0.42-0.934-0.935s0.42-0.935,0.934-0.935c0.515,0,0.936,0.421,0.936,0.935S19.522,12.487,19.008,12.487z
	 M18.074,4.074H6.856v3.739h11.218V4.074z"/>
</svg>
