<?xml version="1.0" encoding="utf-8"?>
<!-- Generator: Adobe Illustrator 16.0.3, SVG Export Plug-In . SVG Version: 6.00 Build 0)  -->
<!DOCTYPE svg PUBLIC "-//W3C//DTD SVG 1.1//EN" "http://www.w3.org/Graphics/SVG/1.1/DTD/svg11.dtd">
<svg version="1.1" id="Layer_1" xmlns="http://www.w3.org/2000/svg" xmlns:xlink="http://www.w3.org/1999/xlink" x="0px" y="0px"
	 width="24px" height="24px" viewBox="0 0 24 24" enable-background="new 0 0 24 24" xml:space="preserve">
<path d="M11.868,2.122C6.412,2.194,2.049,6.677,2.122,12.133c0.073,5.453,4.555,9.816,10.01,9.744
	c5.455-0.073,9.818-4.556,9.746-10.011C21.805,6.413,17.322,2.048,11.868,2.122L11.868,2.122z M11.838,18.012h-0.055
	c-0.84-0.025-1.433-0.645-1.408-1.472c0.022-0.813,0.63-1.404,1.441-1.404l0.05,0.001c0.862,0.025,1.45,0.639,1.424,1.49
	C13.268,17.443,12.669,18.012,11.838,18.012L11.838,18.012z M15.371,11c-0.197,0.28-0.631,0.629-1.178,1.055l-0.604,0.417
	c-0.33,0.257-0.531,0.5-0.605,0.738c-0.06,0.187-0.089,0.236-0.094,0.617l-0.001,0.098h-2.302l0.006-0.195
	c0.028-0.8,0.049-1.271,0.381-1.661c0.521-0.61,1.669-1.351,1.718-1.382c0.163-0.124,0.303-0.264,0.407-0.415
	c0.24-0.333,0.348-0.596,0.348-0.853c0-0.357-0.107-0.689-0.316-0.984c-0.201-0.284-0.584-0.427-1.138-0.427
	c-0.55,0-0.927,0.174-1.15,0.532c-0.232,0.368-0.35,0.754-0.35,1.148v0.099H8.12l0.004-0.103c0.063-1.453,0.58-2.5,1.542-3.111
	c0.604-0.389,1.355-0.586,2.233-0.586c1.148,0,2.117,0.279,2.88,0.83c0.773,0.558,1.164,1.393,1.164,2.482
	C15.943,9.907,15.752,10.479,15.371,11L15.371,11z M15.371,11"/>
</svg>
