<?xml version="1.0" encoding="utf-8"?>
<!-- Generator: Adobe Illustrator 16.0.3, SVG Export Plug-In . SVG Version: 6.00 Build 0)  -->
<!DOCTYPE svg PUBLIC "-//W3C//DTD SVG 1.1//EN" "http://www.w3.org/Graphics/SVG/1.1/DTD/svg11.dtd">
<svg version="1.1" id="Layer_1" xmlns="http://www.w3.org/2000/svg" xmlns:xlink="http://www.w3.org/1999/xlink" x="0px" y="0px"
	 width="24px" height="24px" viewBox="0 0 24 24" enable-background="new 0 0 24 24" xml:space="preserve">
<path fill="#010101" d="M12.003,1.938c-5.52,0-10,4.48-10,10c0,5.52,4.48,10,10,10c5.52,0,10-4.48,10-10
	C22.004,6.417,17.523,1.938,12.003,1.938z M4.003,11.938c0-4.42,3.58-8,8-8c1.85,0,3.549,0.63,4.901,1.69L5.693,16.838
	C4.633,15.488,4.003,13.787,4.003,11.938z M12.003,19.938c-1.85,0-3.55-0.629-4.9-1.689l11.211-11.21
	c1.059,1.35,1.689,3.05,1.689,4.9C20.004,16.357,16.424,19.938,12.003,19.938z"/>
</svg>
