<?xml version="1.0" encoding="utf-8"?>
<!-- Generator: Adobe Illustrator 16.0.3, SVG Export Plug-In . SVG Version: 6.00 Build 0)  -->
<!DOCTYPE svg PUBLIC "-//W3C//DTD SVG 1.1//EN" "http://www.w3.org/Graphics/SVG/1.1/DTD/svg11.dtd">
<svg version="1.1" id="Layer_1" xmlns="http://www.w3.org/2000/svg" xmlns:xlink="http://www.w3.org/1999/xlink" x="0px" y="0px"
	 width="24px" height="24px" viewBox="0 0 24 24" enable-background="new 0 0 24 24" xml:space="preserve">
<path fill="#030303" d="M10.403,18.387c0,0.878-0.718,1.597-1.597,1.597s-1.588-0.719-1.588-1.597s0.71-1.597,1.588-1.597
	S10.403,17.509,10.403,18.387z M16.79,16.79c-0.878,0-1.589,0.719-1.589,1.597s0.711,1.597,1.589,1.597
	c0.879,0,1.597-0.719,1.597-1.597S17.669,16.79,16.79,16.79z M8.966,14.1l-0.024,0.096c0,0.113,0.087,0.199,0.199,0.199h9.246v1.598
	H8.806c-0.878,0-1.596-0.719-1.596-1.598c0-0.279,0.071-0.542,0.199-0.766l1.078-1.957L5.613,5.613H4.016V4.016h2.612l0.75,1.597
	h11.809c0.438,0,0.798,0.359,0.798,0.799c0,0.135-0.032,0.271-0.096,0.383l-2.858,5.182c-0.271,0.495-0.799,0.822-1.397,0.822H9.685
	L8.966,14.1z M10.11,11.634h5.916l2.871-5.022H7.752L10.11,11.634z"/>
</svg>
