<?xml version="1.0" encoding="utf-8"?>
<!-- Generator: Adobe Illustrator 16.0.3, SVG Export Plug-In . SVG Version: 6.00 Build 0)  -->
<!DOCTYPE svg PUBLIC "-//W3C//DTD SVG 1.1//EN" "http://www.w3.org/Graphics/SVG/1.1/DTD/svg11.dtd">
<svg version="1.1" id="Layer_1" xmlns="http://www.w3.org/2000/svg" xmlns:xlink="http://www.w3.org/1999/xlink" x="0px" y="0px"
	 width="24px" height="24px" viewBox="0 0 24 24" enable-background="new 0 0 24 24" xml:space="preserve">
<path fill="#010101" d="M8.314,16.755c-0.872,0-1.745,0.714-1.951,1.585s0.332,1.585,1.203,1.585c0.872,0,1.753-0.714,1.959-1.585
	S9.186,16.755,8.314,16.755z M6.548,4.074L6.174,5.659H7.76l1.435,6.015l-1.528,1.942C7.488,13.839,7.354,14.1,7.29,14.377
	c-0.205,0.872,0.339,1.586,1.211,1.586h9.511l0.373-1.586H9.207c-0.11,0-0.177-0.086-0.15-0.197l0.046-0.096l1.018-1.292h5.904
	c0.596,0,1.195-0.325,1.58-0.816l4.051-5.144c0.09-0.112,0.152-0.246,0.184-0.38c0.104-0.437-0.17-0.793-0.604-0.793H9.511
	l-0.37-1.585H6.548z M16.24,16.755c-0.873,0-1.746,0.714-1.953,1.585c-0.205,0.871,0.334,1.585,1.205,1.585s1.752-0.714,1.959-1.585
	C17.656,17.469,17.111,16.755,16.24,16.755z M7.875,12.333H3.912v-0.667h3.963V12.333z M7.218,13.826H3.123v-0.668h4.096V13.826z
	 M6.665,15.292H2.144v-0.667h4.521V15.292z"/>
</svg>
