<?xml version="1.0" encoding="utf-8"?>
<!-- Generator: Adobe Illustrator 16.0.3, SVG Export Plug-In . SVG Version: 6.00 Build 0)  -->
<!DOCTYPE svg PUBLIC "-//W3C//DTD SVG 1.1//EN" "http://www.w3.org/Graphics/SVG/1.1/DTD/svg11.dtd">
<svg version="1.1" id="Layer_1" xmlns="http://www.w3.org/2000/svg" xmlns:xlink="http://www.w3.org/1999/xlink" x="0px" y="0px"
	 width="24px" height="24px" viewBox="0 0 24 24" enable-background="new 0 0 24 24" xml:space="preserve">
<path fill="#010101" d="M15.507,14h-0.79l-0.28-0.27c0.98-1.141,1.57-2.621,1.57-4.23c0-3.59-2.91-6.5-6.5-6.5s-6.5,2.91-6.5,6.5
	s2.91,6.5,6.5,6.5c1.61,0,3.09-0.59,4.23-1.57l0.27,0.28v0.79l5,4.99l1.49-1.49L15.507,14z M9.507,14c-2.49,0-4.5-2.01-4.5-4.5
	S7.017,5,9.507,5s4.5,2.01,4.5,4.5S11.997,14,9.507,14z"/>
<path fill="#010101" d="M12.007,10h-2v2h-1v-2h-2V9h2V7h1v2h2V10z"/>
</svg>
