<?xml version="1.0" encoding="utf-8"?>
<!-- Generator: Adobe Illustrator 16.0.3, SVG Export Plug-In . SVG Version: 6.00 Build 0)  -->
<!DOCTYPE svg PUBLIC "-//W3C//DTD SVG 1.1//EN" "http://www.w3.org/Graphics/SVG/1.1/DTD/svg11.dtd">
<svg version="1.1" id="Layer_1" xmlns="http://www.w3.org/2000/svg" xmlns:xlink="http://www.w3.org/1999/xlink" x="0px" y="0px"
	 width="24px" height="24px" viewBox="0 0 24 24" enable-background="new 0 0 24 24" xml:space="preserve">
<path fill-rule="evenodd" clip-rule="evenodd" d="M21.938,11.979c0-5.47-4.435-9.905-9.902-9.905c-5.471,0-9.906,4.436-9.906,9.905
	c0,5.468,4.436,9.904,9.906,9.904C17.503,21.884,21.938,17.447,21.938,11.979L21.938,11.979z M12.257,6.577
	c0.62,0,1.126,0.505,1.126,1.125c0,0.622-0.506,1.125-1.126,1.125c-0.619,0-1.123-0.504-1.123-1.125
	C11.134,7.082,11.638,6.577,12.257,6.577L12.257,6.577z M9.783,16.93h1.351v-6.3H9.783v-0.9h3.6v7.201h1.35v0.9H9.783V16.93z
	 M9.783,16.93"/>
</svg>
