<?xml version="1.0" encoding="utf-8"?>
<!-- Generator: Adobe Illustrator 16.0.3, SVG Export Plug-In . SVG Version: 6.00 Build 0)  -->
<!DOCTYPE svg PUBLIC "-//W3C//DTD SVG 1.1//EN" "http://www.w3.org/Graphics/SVG/1.1/DTD/svg11.dtd">
<svg version="1.1" id="Layer_1" xmlns="http://www.w3.org/2000/svg" xmlns:xlink="http://www.w3.org/1999/xlink" x="0px" y="0px"
	 width="24px" height="24px" viewBox="0 0 24 24" enable-background="new 0 0 24 24" xml:space="preserve">
<path fill="#010101" fill-opacity="0.9" d="M12.997,2c-5.52,0-9.989,4.48-9.989,10c0,5.52,4.47,10,9.989,10
	c5.53,0,10.011-4.48,10.011-10C23.008,6.48,18.527,2,12.997,2z M13.008,20c-4.42,0-8-3.58-8-8s3.58-8,8-8s8,3.58,8,8
	S17.428,20,13.008,20z"/>
<path fill="#010101" fill-opacity="0.9" d="M13.508,7h-1.5v6l5.25,3.15l0.75-1.23l-4.5-2.67V7z"/>
</svg>
