<?xml version="1.0" encoding="utf-8"?>
<!-- Generator: Adobe Illustrator 16.0.3, SVG Export Plug-In . SVG Version: 6.00 Build 0)  -->
<!DOCTYPE svg PUBLIC "-//W3C//DTD SVG 1.1//EN" "http://www.w3.org/Graphics/SVG/1.1/DTD/svg11.dtd">
<svg version="1.1" id="Layer_1" xmlns="http://www.w3.org/2000/svg" xmlns:xlink="http://www.w3.org/1999/xlink" x="0px" y="0px"
	 width="24px" height="24px" viewBox="0 0 24 24" enable-background="new 0 0 24 24" xml:space="preserve">
<path id="_x32_0._SS" fill="#231F20" d="M17.035,6.969C16.49,4.692,14.444,3,12.001,3s-4.49,1.692-5.035,3.969
	c-2.27,0.545-3.965,2.591-3.965,5.032c0,2.443,1.695,4.489,3.965,5.031c0.545,2.276,2.592,3.969,5.035,3.969
	s4.489-1.692,5.034-3.969c0.089-0.387,0.144-0.791,0.144-1.206c0-0.081-0.003-0.162-0.009-0.244
	c-0.037-0.786-0.248-1.524-0.598-2.182c0.501-0.268,0.84-0.795,0.84-1.399c0-0.875-0.711-1.587-1.589-1.587
	c-0.604,0-1.128,0.343-1.396,0.843c-0.029-0.018-0.061-0.034-0.096-0.052c-0.352-0.177-0.729-0.316-1.125-0.412
	c-0.31-0.072-0.633-0.122-0.965-0.135c-0.076-0.006-0.16-0.007-0.24-0.007c-0.081,0-0.166,0.001-0.243,0.007
	c-0.33,0.015-0.653,0.063-0.963,0.135c-0.398,0.096-0.773,0.235-1.125,0.412c-0.911-0.696-1.491-1.794-1.491-3.03
	c0-0.472,0.085-0.925,0.242-1.343c-0.086-0.004-0.086-0.004,0-0.002c0.545-1.448,1.938-2.48,3.58-2.48
	c1.642,0,3.034,1.032,3.579,2.482c-0.779,0.036-1.517,0.247-2.178,0.594c-0.267-0.501-0.794-0.844-1.401-0.844
	c-0.882,0-1.593,0.713-1.593,1.593c0,0.879,0.711,1.593,1.593,1.593c0.271,0,0.521-0.066,0.748-0.188
	c0.107-0.058,0.211-0.132,0.306-0.212c0.046-0.043,0.092-0.087,0.131-0.132c0.688-0.657,1.617-1.061,2.638-1.061l0,0
	c0.477,0,0.931,0.086,1.347,0.244c0.006-0.079,0.006-0.079,0,0c1.45,0.545,2.484,1.942,2.484,3.582c0,1.639-1.034,3.036-2.484,3.581
	c0.006,0.082,0.009,0.163,0.009,0.244c0,0.415-0.055,0.819-0.144,1.206c2.271-0.542,3.966-2.588,3.966-5.031
	C21.001,9.56,19.306,7.514,17.035,6.969z M9.284,13.121c-0.001,0.005-0.001,0.009-0.002,0.012c0.686-0.657,1.691-1.132,2.719-1.132
	l0,0c0.472,0,0.924,0.088,1.346,0.241c0.354,0.135,0.686,0.325,0.984,0.554c0.911,0.699,1.492,1.796,1.492,3.03l0,0
	c0,0.475-0.086,0.925-0.243,1.343c0.087,0.004,0.087,0.004,0,0c-0.545,1.452-1.938,2.482-3.579,2.482
	c-1.643,0-3.035-1.03-3.58-2.482c0.779-0.035,1.518-0.246,2.177-0.594c0.268,0.501,0.795,0.844,1.403,0.844
	c0.879,0,1.592-0.714,1.592-1.593s-0.713-1.593-1.592-1.593c-0.271,0-0.524,0.07-0.749,0.187c-0.109,0.06-0.211,0.134-0.306,0.213
	c-0.046,0.044-0.094,0.088-0.131,0.135c-0.688,0.654-1.617,1.059-2.637,1.059c-0.478,0-0.932-0.086-1.349-0.244
	c-1.449-0.545-2.481-1.942-2.481-3.581c0-1.64,1.032-3.037,2.481-3.582c0.038,0.789,0.252,1.529,0.604,2.188
	c-0.503,0.264-0.837,0.79-0.837,1.394c0,0.872,0.703,1.582,1.582,1.582C8.608,13.583,9.002,13.407,9.284,13.121z"/>
</svg>
