<?xml version="1.0" encoding="utf-8"?>
<!-- Generator: Adobe Illustrator 16.0.3, SVG Export Plug-In . SVG Version: 6.00 Build 0)  -->
<!DOCTYPE svg PUBLIC "-//W3C//DTD SVG 1.1//EN" "http://www.w3.org/Graphics/SVG/1.1/DTD/svg11.dtd">
<svg version="1.1" id="Layer_1" xmlns="http://www.w3.org/2000/svg" xmlns:xlink="http://www.w3.org/1999/xlink" x="0px" y="0px"
	 width="24px" height="24px" viewBox="0 0 24 24" enable-background="new 0 0 24 24" xml:space="preserve">
<path fill="#010101" d="M16.376,2.825c-1.74,0-3.41,0.81-4.5,2.09c-1.09-1.28-2.76-2.09-4.5-2.09c-3.08,0-5.5,2.42-5.5,5.5
	c0,3.78,3.4,6.858,8.55,11.54l1.45,1.309l1.45-1.32c5.149-4.67,8.55-7.749,8.55-11.528C21.876,5.245,19.456,2.825,16.376,2.825z
	 M11.976,18.375l-0.1,0.1l-0.1-0.1c-4.76-4.311-7.9-7.16-7.9-10.05c0-2,1.5-3.5,3.5-3.5c1.54,0,3.04,0.99,3.57,2.36h1.869
	c0.521-1.37,2.021-2.36,3.561-2.36c2,0,3.5,1.5,3.5,3.5C19.876,11.215,16.735,14.064,11.976,18.375z"/>
</svg>
